<mxfile host="app.diagrams.net" modified="2020-08-20T14:41:08.162Z" agent="5.0 (Macintosh; Intel Mac OS X 10_15_5) AppleWebKit/537.36 (KHTML, like Gecko) Chrome/84.0.4147.125 Safari/537.36" etag="Dq9al2FWxWKhnCODDxfF" version="13.4.2" type="github">
  <diagram id="ZiBkahH8SP8CnK9dvMeT" name="第 1 页">
    <mxGraphModel dx="1298" dy="843" grid="1" gridSize="10" guides="1" tooltips="1" connect="1" arrows="1" fold="1" page="1" pageScale="1" pageWidth="827" pageHeight="1169" math="0" shadow="0">
      <root>
        <mxCell id="0" />
        <mxCell id="1" parent="0" />
        <mxCell id="d96ztFlCBzJFWVPDQd_p-28" value="用户服务" style="rounded=0;whiteSpace=wrap;html=1;verticalAlign=top;" vertex="1" parent="1">
          <mxGeometry x="140" y="230" width="120" height="290" as="geometry" />
        </mxCell>
        <mxCell id="d96ztFlCBzJFWVPDQd_p-9" value="" style="rounded=0;whiteSpace=wrap;html=1;" vertex="1" parent="1">
          <mxGeometry x="320" y="250" width="370" height="180" as="geometry" />
        </mxCell>
        <mxCell id="d96ztFlCBzJFWVPDQd_p-1" value="用户管理" style="rounded=1;whiteSpace=wrap;html=1;" vertex="1" parent="1">
          <mxGeometry x="160" y="280" width="80" height="30" as="geometry" />
        </mxCell>
        <mxCell id="d96ztFlCBzJFWVPDQd_p-2" value="用户认证" style="rounded=1;whiteSpace=wrap;html=1;" vertex="1" parent="1">
          <mxGeometry x="160" y="360" width="80" height="30" as="geometry" />
        </mxCell>
        <mxCell id="d96ztFlCBzJFWVPDQd_p-3" value="权限管理" style="rounded=1;whiteSpace=wrap;html=1;" vertex="1" parent="1">
          <mxGeometry x="160" y="400" width="80" height="30" as="geometry" />
        </mxCell>
        <mxCell id="d96ztFlCBzJFWVPDQd_p-5" value="数据" style="rounded=0;whiteSpace=wrap;html=1;" vertex="1" parent="1">
          <mxGeometry x="340" y="680" width="120" height="60" as="geometry" />
        </mxCell>
        <mxCell id="d96ztFlCBzJFWVPDQd_p-6" value="数据接口" style="rounded=1;whiteSpace=wrap;html=1;" vertex="1" parent="1">
          <mxGeometry x="222" y="530" width="356" height="80" as="geometry" />
        </mxCell>
        <mxCell id="d96ztFlCBzJFWVPDQd_p-23" style="edgeStyle=orthogonalEdgeStyle;rounded=0;orthogonalLoop=1;jettySize=auto;html=1;entryX=0.5;entryY=0;entryDx=0;entryDy=0;" edge="1" parent="1" source="d96ztFlCBzJFWVPDQd_p-7" target="d96ztFlCBzJFWVPDQd_p-6">
          <mxGeometry relative="1" as="geometry" />
        </mxCell>
        <mxCell id="d96ztFlCBzJFWVPDQd_p-7" value="业务服务" style="rounded=1;whiteSpace=wrap;html=1;" vertex="1" parent="1">
          <mxGeometry x="340" y="360" width="120" height="37.5" as="geometry" />
        </mxCell>
        <mxCell id="d96ztFlCBzJFWVPDQd_p-25" value="" style="edgeStyle=orthogonalEdgeStyle;rounded=0;orthogonalLoop=1;jettySize=auto;html=1;exitX=0;exitY=0.5;exitDx=0;exitDy=0;" edge="1" parent="1" source="d96ztFlCBzJFWVPDQd_p-8" target="d96ztFlCBzJFWVPDQd_p-7">
          <mxGeometry relative="1" as="geometry">
            <mxPoint x="550" y="379" as="sourcePoint" />
          </mxGeometry>
        </mxCell>
        <mxCell id="d96ztFlCBzJFWVPDQd_p-8" value="算法服务" style="rounded=1;whiteSpace=wrap;html=1;" vertex="1" parent="1">
          <mxGeometry x="530" y="360" width="120" height="37.5" as="geometry" />
        </mxCell>
        <mxCell id="d96ztFlCBzJFWVPDQd_p-12" value="基础服务" style="rounded=0;whiteSpace=wrap;html=1;verticalAlign=top;" vertex="1" parent="1">
          <mxGeometry x="760" y="225" width="163" height="335" as="geometry" />
        </mxCell>
        <mxCell id="d96ztFlCBzJFWVPDQd_p-13" value="监控" style="rounded=1;whiteSpace=wrap;html=1;" vertex="1" parent="1">
          <mxGeometry x="782" y="265" width="120" height="35" as="geometry" />
        </mxCell>
        <mxCell id="d96ztFlCBzJFWVPDQd_p-14" value="日志" style="rounded=1;whiteSpace=wrap;html=1;" vertex="1" parent="1">
          <mxGeometry x="781.5" y="322.5" width="120" height="35" as="geometry" />
        </mxCell>
        <mxCell id="d96ztFlCBzJFWVPDQd_p-15" value="" style="shape=flexArrow;endArrow=classic;html=1;entryX=0.5;entryY=0;entryDx=0;entryDy=0;exitX=0.5;exitY=1;exitDx=0;exitDy=0;" edge="1" parent="1" source="d96ztFlCBzJFWVPDQd_p-6" target="d96ztFlCBzJFWVPDQd_p-5">
          <mxGeometry width="50" height="50" relative="1" as="geometry">
            <mxPoint x="580" y="660" as="sourcePoint" />
            <mxPoint x="630" y="610" as="targetPoint" />
          </mxGeometry>
        </mxCell>
        <mxCell id="d96ztFlCBzJFWVPDQd_p-18" value="用户 project" style="rounded=0;whiteSpace=wrap;html=1;verticalAlign=top;" vertex="1" parent="1">
          <mxGeometry x="102" y="10" width="878" height="130" as="geometry" />
        </mxCell>
        <mxCell id="d96ztFlCBzJFWVPDQd_p-19" value="域名" style="rounded=1;whiteSpace=wrap;html=1;" vertex="1" parent="1">
          <mxGeometry x="400" y="50" width="120" height="60" as="geometry" />
        </mxCell>
        <mxCell id="d96ztFlCBzJFWVPDQd_p-20" value="部署" style="rounded=1;whiteSpace=wrap;html=1;" vertex="1" parent="1">
          <mxGeometry x="782" y="380" width="120" height="60" as="geometry" />
        </mxCell>
        <mxCell id="d96ztFlCBzJFWVPDQd_p-21" value="产品" style="rounded=1;whiteSpace=wrap;html=1;" vertex="1" parent="1">
          <mxGeometry x="560" y="50" width="120" height="60" as="geometry" />
        </mxCell>
        <mxCell id="d96ztFlCBzJFWVPDQd_p-22" value="子用户" style="rounded=1;whiteSpace=wrap;html=1;" vertex="1" parent="1">
          <mxGeometry x="240" y="50" width="120" height="60" as="geometry" />
        </mxCell>
        <mxCell id="d96ztFlCBzJFWVPDQd_p-30" value="产品" style="rounded=1;whiteSpace=wrap;html=1;" vertex="1" parent="1">
          <mxGeometry x="160" y="470" width="80" height="30" as="geometry" />
        </mxCell>
      </root>
    </mxGraphModel>
  </diagram>
</mxfile>
